<?xml version="1.0" encoding="UTF-8" standalone="no"?>
<svg width="318px" height="107px" viewBox="0 0 318 107" version="1.1" xmlns="http://www.w3.org/2000/svg" xmlns:xlink="http://www.w3.org/1999/xlink" xmlns:sketch="http://www.bohemiancoding.com/sketch/ns">
    <!-- Generator: Sketch 3.3.3 (12081) - http://www.bohemiancoding.com/sketch -->
    <title>Elements</title>
    <desc>Created with Sketch.</desc>
    <defs></defs>
    <g id="Page-1" stroke="none" stroke-width="1" fill="none" fill-rule="evenodd" sketch:type="MSPage">
        <g id="pulseband-logo" sketch:type="MSLayerGroup" transform="translate(1.000000, -1.000000)">
            <g id="Elements" sketch:type="MSShapeGroup">
                <g id="Group-Copy-2" transform="translate(0.792265, 0.956245)">
                    <path d="M42.1598868,36.5086469 C42.1598868,36.5086469 41.7383073,35.8741863 41.3167278,34.8167518 C41.105938,34.393778 40.6843585,33.7593173 40.4735687,32.9133698 C40.2627789,32.490396 40.2627789,32.2789091 40.0519892,31.8559353 L40.0519892,31.2214746 L40.0519892,30.587014 C39.8411994,26.9917368 40.0519892,22.3390252 41.105938,17.4748267 C41.3167278,16.2059053 41.7383073,15.1484709 42.1598868,13.8795495 C42.3706766,13.2450889 42.5814664,12.8221151 42.7922561,12.1876544 C43.0030459,11.5531937 43.2138357,11.13022 43.6354152,10.4957593 C44.2677845,9.43832482 44.689364,8.38089036 45.5325231,7.32345591 C46.1648924,6.26602145 47.0080515,5.42007388 47.6404208,4.57412632 C47.8512105,4.36263943 48.0620003,4.15115254 48.2727901,3.93966564 C48.4835798,3.72817875 48.6943696,3.51669186 48.9051594,3.30520497 C49.5375287,2.88223119 49.9591082,2.6707443 50.3806877,2.24777051 C50.3806877,2.4592574 51.013057,2.03628362 51.4346366,1.82479673 C51.8562161,1.61330984 52.2777956,1.40182295 52.6993752,1.19033606 C53.5425342,0.767362273 54.1749035,0.555875381 54.596483,0.34438849 C55.0180626,0.132901598 55.2288523,0.132901598 55.2288523,0.132901598 C55.2288523,0.132901598 55.2288523,0.34438849 55.0180626,0.555875381 C54.8072728,0.767362273 54.1749035,1.19033606 53.753324,1.61330984 C53.3317445,1.82479673 53.1209547,2.03628362 52.9101649,2.4592574 C52.6993752,2.6707443 52.2777956,3.09371808 52.0670059,3.30520497 C51.8562161,3.51669186 51.6454263,3.93966564 51.2238468,4.36263943 C51.013057,4.57412632 50.8022673,4.78561321 50.8022673,4.9971001 C50.5914775,5.20858699 50.3806877,5.42007388 50.169898,5.63156078 C49.5375287,6.47750834 48.6943696,7.32345591 48.0620003,8.16940347 C47.429631,9.01535104 46.7972617,10.0727855 46.3756822,11.13022 C46.1648924,11.5531937 45.9541026,12.1876544 45.7433129,12.8221151 C45.5325231,13.4565758 45.3217333,13.8795495 45.1109436,14.5140102 C44.689364,15.5714447 44.4785743,16.840366 44.0569947,17.8978005 C43.0030459,22.5505121 42.7922561,27.2032237 43.0030459,30.7985009 L43.0030459,31.4329615 L43.0030459,32.0674222 C43.0030459,32.490396 42.7922561,32.9133698 42.7922561,33.1248567 C42.5814664,33.7593173 42.5814664,34.393778 42.3706766,35.0282387 C42.3706766,35.8741863 42.1598868,36.5086469 42.1598868,36.5086469 L42.1598868,36.5086469 L42.1598868,36.5086469 Z" id="Shape" fill="#111111"></path>
                    <path d="M40.7621668,37.0749233 C40.7621668,37.0749233 41.1837463,36.4404626 41.6053258,35.3830282 C41.8161156,34.9600544 42.2376951,34.3255937 42.4484849,33.4796461 C42.6592747,33.0566724 42.6592747,32.8451855 42.8700644,32.4222117 L42.8700644,31.787751 L42.8700644,31.1532903 C43.0808542,27.5580132 42.8700644,22.9053016 41.8161156,18.0411031 C41.6053258,16.7721817 41.1837463,15.7147473 40.7621668,14.4458259 C40.551377,13.8113652 40.3405872,13.3883915 40.1297975,12.7539308 C39.9190077,12.1194701 39.7082179,11.6964963 39.2866384,11.0620357 C38.6542691,10.0046012 38.2326896,8.94716674 37.3895305,7.88973228 C36.7571612,6.83229783 35.9140021,5.98635026 35.2816328,5.14040269 C35.0708431,4.9289158 34.8600533,4.71742891 34.6492635,4.50594202 C34.4384738,4.29445513 34.227684,4.08296824 34.0168942,3.87148135 C33.3845249,3.44850756 32.9629454,3.23702067 32.5413659,2.81404689 C32.1197863,2.60256 31.487417,2.17958621 31.0658375,1.96809932 C30.644258,1.75661243 30.2226784,1.54512554 29.8010989,1.33363865 C28.9579398,0.910664866 28.3255705,0.699177974 27.903991,0.487691083 C27.4824115,0.276204192 27.2716217,0.276204192 27.2716217,0.276204192 C27.2716217,0.276204192 27.4824115,0.487691083 27.6932012,0.699177974 C27.903991,0.910664866 28.5363603,1.33363865 28.9579398,1.75661243 C29.1687296,1.96809932 29.5903091,2.17958621 29.8010989,2.60256 C30.0118887,2.81404689 30.4334682,3.23702067 30.644258,3.44850756 C31.0658375,4.08296824 31.2766273,4.50594202 31.487417,4.9289158 C31.6982068,5.14040269 31.9089966,5.35188959 31.9089966,5.56337648 C32.1197863,5.77486337 32.3305761,5.98635026 32.5413659,6.19783715 C33.1737352,7.04378472 34.0168942,7.88973228 34.6492635,8.73567985 C35.2816328,9.58162742 35.9140021,10.6390619 36.3355817,11.6964963 C36.5463714,12.1194701 36.7571612,12.7539308 36.967951,13.3883915 C37.1787407,14.0228521 37.3895305,14.4458259 37.6003203,15.0802866 C38.0218998,16.1377211 38.2326896,17.4066424 38.6542691,18.4640769 C39.7082179,23.1167885 39.9190077,27.7695001 39.7082179,31.3647772 L39.7082179,31.9992379 L39.7082179,32.6336986 C39.7082179,33.0566724 39.9190077,33.4796461 39.9190077,33.691133 C40.1297975,34.3255937 40.1297975,34.9600544 40.3405872,35.5945151 C40.551377,36.4404626 40.7621668,37.0749233 40.7621668,37.0749233 L40.7621668,37.0749233 L40.7621668,37.0749233 Z" id="Shape" fill="#111111"></path>
                    <path d="M61.4860546,103.775346 C50.314197,103.775346 41.250237,94.6814101 41.250237,83.4726048 C41.250237,94.6814101 32.1862771,103.775346 21.0144195,103.775346 C9.84256183,103.775346 0.77860187,94.6814101 0.77860187,83.4726048 C0.77860187,72.2637996 7.31308463,63.1698632 18.2741525,57.882691 C25.019425,54.7103876 41.4610268,36.7340018 41.4610268,36.7340018 C41.4610268,36.7340018 57.9026286,54.7103876 64.6479011,57.882691 C75.608969,63.1698632 82.1434517,72.2637996 82.1434517,83.4726048 C81.7218722,94.4699232 72.6579122,103.775346 61.4860546,103.775346 L61.4860546,103.775346 L61.4860546,103.775346 Z" id="Shape" stroke="#111111" stroke-width="5"></path>
                    <path d="M61.4860546,15.7967996 C50.314197,15.7967996 41.250237,24.8907359 41.250237,36.0995411 C41.250237,24.8907359 32.1862771,15.7967996 21.0144195,15.7967996 C9.84256183,15.7967996 0.77860187,24.8907359 0.77860187,36.0995411 C0.77860187,47.3083464 7.31308463,56.4022827 18.2741525,61.689455 C25.019425,64.8617584 41.4610268,82.8381441 41.4610268,82.8381441 C41.4610268,82.8381441 57.9026286,64.8617584 64.6479011,61.689455 C75.608969,56.4022827 82.1434517,47.3083464 82.1434517,36.0995411 C81.7218722,24.8907359 72.6579122,15.7967996 61.4860546,15.7967996 L61.4860546,15.7967996 L61.4860546,15.7967996 Z" id="Shape" stroke="#111111" stroke-width="5"></path>
                    <path d="M135.005471,60.2 C135.005471,63.3680158 133.917482,66.1199883 131.741471,68.456 C129.56546,70.856012 126.957486,72.056 123.917471,72.056 C122.573464,72.056 121.357476,71.9120014 120.269471,71.624 C119.853469,71.5279995 119.445473,71.4000008 119.045471,71.24 C118.645469,71.0799992 118.237473,70.904001 117.821471,70.712 L117.821471,82.664 L114.317471,82.664 L114.317471,52.04 L117.869471,49.928 C118.221473,49.7679992 118.629469,49.592001 119.093471,49.4 C119.557473,49.207999 120.061468,49.0320008 120.605471,48.872 C121.085473,48.7119992 121.565468,48.5920004 122.045471,48.512 C122.525473,48.4319996 122.989469,48.392 123.437471,48.392 C126.797488,48.392 129.56546,49.495989 131.741471,51.704 C133.917482,53.912011 135.005471,56.7439827 135.005471,60.2 L135.005471,60.2 L135.005471,60.2 Z M131.261471,60.248 C131.261471,57.8159878 130.461479,55.8320077 128.861471,54.296 C127.261463,52.6639918 125.261483,51.848 122.861471,51.848 C122.189468,51.848 121.589474,51.943999 121.061471,52.136 C120.533468,52.328001 120.045473,52.5039992 119.597471,52.664 C119.213469,52.8240008 118.869472,52.9599994 118.565471,53.072 C118.261469,53.1840006 118.013472,53.3039994 117.821471,53.432 L117.821471,67.208 C118.077472,67.3680008 118.373469,67.5039994 118.709471,67.616 C119.045473,67.7280006 119.405469,67.8639992 119.789471,68.024 C120.269473,68.1840008 120.789468,68.3199994 121.349471,68.432 C121.909474,68.5440006 122.509468,68.6 123.149471,68.6 C125.613483,68.6 127.565464,67.8160078 129.005471,66.248 C130.509478,64.6799922 131.261471,62.6800122 131.261471,60.248 L131.261471,60.248 L131.261471,60.248 Z M158.941471,63.128 C158.74947,65.528012 158.397473,67.0639966 157.885471,67.736 C156.989466,69.144007 155.917477,70.1839966 154.669471,70.856 C153.421465,71.5600035 151.597483,71.9599995 149.197471,72.056 C146.317457,72.056 144.077479,71.256008 142.477471,69.656 C140.877463,68.055992 140.077471,65.752015 140.077471,62.744 L140.077471,48.824 L143.581471,48.824 L143.581471,62.264 C143.581471,64.3120102 144.125465,65.9039943 145.213471,67.04 C146.301476,68.1760057 147.677463,68.744 149.341471,68.744 C151.293481,68.7119998 152.749466,68.2800042 153.709471,67.448 C154.861477,66.2959942 155.405471,65.2720045 155.341471,64.376 L155.341471,48.824 L158.845471,48.824 L158.941471,63.128 L158.941471,63.128 Z M165.597471,71.624 L165.597471,37.64 L169.101471,37.64 L169.101471,71.624 L165.597471,71.624 L165.597471,71.624 Z M189.293471,65.432 C189.293471,67.2560091 188.557478,68.8239934 187.085471,70.136 C185.645464,71.4480066 183.853482,72.104 181.709471,72.104 C180.013462,72.104 178.573477,71.8320027 177.389471,71.288 C176.781468,71.0319987 176.261473,70.7840012 175.829471,70.544 C175.397469,70.3039988 174.973473,70.0560013 174.557471,69.8 L174.557471,66.056 C175.389475,66.6000027 176.093468,67.0079986 176.669471,67.28 C177.245474,67.5520014 177.821468,67.783999 178.397471,67.976 C179.549477,68.3920021 180.653466,68.6 181.709471,68.6 C182.957477,68.6 183.981467,68.296003 184.781471,67.688 C185.517475,67.1439973 185.885471,66.376005 185.885471,65.384 C185.885471,64.7119966 185.613474,64.1040027 185.069471,63.56 C184.429468,62.951997 182.957482,62.2320042 180.653471,61.4 C179.725466,61.0479982 178.901475,60.672002 178.181471,60.272 C177.461467,59.871998 176.845473,59.4160026 176.333471,58.904 C175.245465,57.8479947 174.701471,56.4880083 174.701471,54.824 C174.701471,52.9679907 175.469463,51.4320061 177.005471,50.216 C177.741475,49.6399971 178.525467,49.1920016 179.357471,48.872 C180.189475,48.5519984 181.085466,48.392 182.045471,48.392 C183.453478,48.392 184.749465,48.6159978 185.933471,49.064 C187.021476,49.4800021 187.917467,49.991997 188.621471,50.6 L188.621471,54.536 C187.789467,53.8959968 187.117473,53.4240015 186.605471,53.12 C186.093468,52.8159985 185.597473,52.5520011 185.117471,52.328 C184.125466,51.9119979 183.165476,51.704 182.237471,51.704 C181.533467,51.704 180.933473,51.7839992 180.437471,51.944 C179.941468,52.1040008 179.517473,52.3279986 179.165471,52.616 C178.461467,53.2880034 178.109471,54.0079962 178.109471,54.776 C178.109471,55.6080042 178.461467,56.2799974 179.165471,56.792 C179.581473,57.0800014 180.061468,57.3599986 180.605471,57.632 C181.149474,57.9040014 181.789467,58.1679987 182.525471,58.424 C184.477481,59.0960034 186.061465,59.927995 187.277471,60.92 C188.621478,61.9760053 189.293471,63.4799902 189.293471,65.432 L189.293471,65.432 L189.293471,65.432 Z M196.957471,60.008 L196.957471,60.872 C197.053471,62.9520104 197.837464,64.7279926 199.309471,66.2 C200.109475,66.9680038 200.989466,67.5599979 201.949471,67.976 C202.909476,68.3920021 203.997465,68.6 205.213471,68.6 C206.845479,68.6 208.317464,68.2320037 209.629471,67.496 C210.333474,67.1119981 210.973468,66.7120021 211.549471,66.296 C212.125474,65.8799979 212.813467,65.3040037 213.613471,64.568 L213.613471,68.84 C213.069468,69.2560021 212.517474,69.6399982 211.957471,69.992 C211.397468,70.3440018 210.781474,70.6639986 210.109471,70.952 C208.541463,71.6880037 206.84548,72.056 205.021471,72.056 C201.629454,72.056 198.829482,70.9200114 196.621471,68.648 C194.44546,66.3119883 193.357471,63.4000174 193.357471,59.912 C193.357471,56.6799838 194.333461,53.9760109 196.285471,51.8 C198.269481,49.5279886 200.797456,48.392 203.869471,48.392 C206.845486,48.392 209.293461,49.4479894 211.213471,51.56 C212.141476,52.5840051 212.845469,53.7759932 213.325471,55.136 C213.805473,56.4960068 214.045471,58.1199906 214.045471,60.008 L196.957471,60.008 L196.957471,60.008 Z M209.821471,57.224 C209.66147,56.4559962 209.437472,55.7360034 209.149471,55.064 C208.861469,54.3919966 208.493473,53.8320022 208.045471,53.384 C207.565469,52.9039976 206.989474,52.5280014 206.317471,52.256 C205.645468,51.9839986 204.845476,51.848 203.917471,51.848 C201.80546,51.848 200.125477,52.6319922 198.877471,54.2 C198.589469,54.5520018 198.325472,54.9999973 198.085471,55.544 C197.84547,56.0880027 197.645472,56.6319973 197.485471,57.176 L209.821471,57.176 L209.821471,57.224 L209.821471,57.224 Z M240.045471,59.672 C240.045471,63.2560179 238.893482,66.2319882 236.589471,68.6 C234.285459,70.9040115 231.149491,72.056 227.181471,72.056 C225.773464,72.056 224.445477,71.8960016 223.197471,71.576 C222.525468,71.4159992 221.877474,71.232001 221.253471,71.024 C220.629468,70.815999 219.965474,70.5360018 219.261471,70.184 L219.165471,37.64 L222.717471,37.64 L222.717471,51.272 C223.165473,50.8239978 223.621469,50.4400016 224.085471,50.12 C224.549473,49.7999984 225.021469,49.5280011 225.501471,49.304 C226.205474,49.0159986 226.901468,48.7920008 227.589471,48.632 C228.277474,48.4719992 228.989467,48.392 229.725471,48.392 C232.861487,48.392 235.357462,49.4319896 237.213471,51.512 C238.173476,52.5360051 238.885469,53.7359931 239.349471,55.112 C239.813473,56.4880069 240.045471,58.0079917 240.045471,59.672 L240.045471,59.672 L240.045471,59.672 Z M236.445471,59.768 C236.445471,57.367988 235.789478,55.3840078 234.477471,53.816 C233.229465,52.2799923 231.629481,51.512 229.677471,51.512 C228.077463,51.512 226.653477,51.9599955 225.405471,52.856 C224.253465,53.7200043 223.357474,54.5199963 222.717471,55.256 L222.717471,67.736 C222.941472,67.8640006 223.437467,68.023999 224.205471,68.216 C225.165476,68.4720013 226.269465,68.6 227.517471,68.6 C230.045484,68.6 232.157462,67.7520085 233.853471,66.056 C235.58148,64.3919917 236.445471,62.2960126 236.445471,59.768 L236.445471,59.768 L236.445471,59.768 Z M261.645471,71.72 L261.645471,70.472 C261.261469,70.6320008 260.861473,70.815999 260.445471,71.024 C260.029469,71.232001 259.613473,71.3999994 259.197471,71.528 C257.949465,71.8800018 256.669478,72.056 255.357471,72.056 C252.125455,72.056 249.485481,71.0000106 247.437471,68.888 C245.357461,66.7759894 244.317471,64.0880163 244.317471,60.824 C244.317471,57.2079819 245.37346,54.2480115 247.485471,51.944 C249.693482,49.5759882 252.461454,48.392 255.789471,48.392 C256.749476,48.392 257.725466,48.5679982 258.717471,48.92 C259.773476,49.2720018 260.765466,49.7039974 261.693471,50.216 L262.797471,50.696 L265.101471,51.896 L265.149471,71.72 L261.645471,71.72 L261.645471,71.72 Z M261.693471,53.768 C261.46947,53.6079992 261.197473,53.4080012 260.877471,53.168 C260.557469,52.9279988 260.173473,52.712001 259.725471,52.52 C258.669466,52.0719978 257.533477,51.848 256.317471,51.848 C253.885459,51.848 251.901479,52.6959915 250.365471,54.392 C248.765463,56.0560083 247.965471,58.183987 247.965471,60.776 C247.965471,63.2080122 248.669464,65.127993 250.077471,66.536 C250.813475,67.2720037 251.637466,67.8239982 252.549471,68.192 C253.461476,68.5600018 254.525465,68.744 255.741471,68.744 C257.181478,68.744 258.381466,68.5520019 259.341471,68.168 C259.789473,68.0079992 260.205469,67.7920014 260.589471,67.52 C260.973473,67.2479986 261.341469,67.016001 261.693471,66.824 L261.693471,53.768 L261.693471,53.768 Z M286.173471,71.624 L286.173471,58.712 C286.173471,57.5919944 286.053472,56.6000043 285.813471,55.736 C285.57347,54.8719957 285.229473,54.1680027 284.781471,53.624 C283.885466,52.4399941 282.57348,51.848 280.845471,51.848 C279.309463,51.5919987 278.029476,51.8799958 277.005471,52.712 C275.661464,53.5760043 274.797473,54.6639934 274.413471,55.976 L274.413471,71.624 L270.909471,71.624 L270.861471,56.648 C270.76547,56.1359974 271.149467,54.8880099 272.013471,52.904 C272.877475,51.9439952 273.277471,51.4320003 273.213471,51.368 C274.813479,49.5439909 277.357454,48.5520008 280.845471,48.392 C283.501484,48.392 285.645463,49.2559914 287.277471,50.984 C288.109475,51.8480043 288.717469,52.8719941 289.101471,54.056 C289.485473,55.2400059 289.677471,56.5519928 289.677471,57.992 L289.677471,71.624 L286.173471,71.624 L286.173471,71.624 Z M315.693471,67.016 C315.757471,67.1120005 315.149477,67.7679939 313.869471,68.984 C313.549469,69.3040016 313.101474,69.6559981 312.525471,70.04 C311.405465,70.6800032 310.493474,71.1279987 309.789471,71.384 C309.53347,71.4800005 309.021475,71.6559987 308.253471,71.912 C307.645468,72.0080005 307.037474,72.056 306.429471,72.056 C303.165455,72.056 300.429482,70.9200114 298.221471,68.648 C295.98146,66.3759886 294.861471,63.5760166 294.861471,60.248 C294.861471,56.7599826 295.96546,53.912011 298.173471,51.704 C299.261476,50.5839944 300.525464,49.7520027 301.965471,49.208 C303.405478,48.6639973 304.989462,48.392 306.717471,48.392 C307.741476,48.392 308.733466,48.5359986 309.693471,48.824 C310.173473,48.9840008 310.621469,49.1359993 311.037471,49.28 C311.453473,49.4240007 311.837469,49.591999 312.189471,49.784 L312.189471,37.64 L315.693471,37.64 L315.693471,67.016 L315.693471,67.016 Z M312.141471,53.672 C311.88547,53.479999 311.581473,53.2960009 311.229471,53.12 C310.877469,52.9439991 310.477473,52.7440011 310.029471,52.52 C309.037466,52.0719978 307.901477,51.848 306.621471,51.848 C304.221459,51.848 302.285478,52.6319922 300.813471,54.2 C299.277463,55.7360077 298.509471,57.7519875 298.509471,60.248 C298.509471,62.6160118 299.293463,64.5839922 300.861471,66.152 C302.493479,67.7840082 304.509459,68.6 306.909471,68.6 C307.677475,68.6 308.357468,68.5360006 308.949471,68.408 C309.541474,68.2799994 310.061469,68.1040011 310.509471,67.88 C310.893473,67.6559989 311.22147,67.4240012 311.493471,67.184 C311.765472,66.9439988 311.98147,66.7600006 312.141471,66.632 L312.141471,53.672 L312.141471,53.672 Z" id="pulseband-copy" fill="#111111"></path>
                </g>
            </g>
        </g>
    </g>
</svg>