<?xml version="1.0" encoding="UTF-8" standalone="no"?>
<svg width="395px" height="153px" viewBox="0 0 395 153" version="1.1" xmlns="http://www.w3.org/2000/svg" xmlns:xlink="http://www.w3.org/1999/xlink" xmlns:sketch="http://www.bohemiancoding.com/sketch/ns">
    <!-- Generator: Sketch 3.3.3 (12081) - http://www.bohemiancoding.com/sketch -->
    <title>Group Copy 2</title>
    <desc>Created with Sketch.</desc>
    <defs></defs>
    <g id="Elements" stroke="none" stroke-width="1" fill="none" fill-rule="evenodd" sketch:type="MSPage">
        <g id="Group-Copy-2" sketch:type="MSLayerGroup" transform="translate(31.792265, 22.956245)">
            <path d="M42.1598868,36.5086469 C42.1598868,36.5086469 41.7383073,35.8741863 41.3167278,34.8167518 C41.105938,34.393778 40.6843585,33.7593173 40.4735687,32.9133698 C40.2627789,32.490396 40.2627789,32.2789091 40.0519892,31.8559353 L40.0519892,31.2214746 L40.0519892,30.587014 C39.8411994,26.9917368 40.0519892,22.3390252 41.105938,17.4748267 C41.3167278,16.2059053 41.7383073,15.1484709 42.1598868,13.8795495 C42.3706766,13.2450889 42.5814664,12.8221151 42.7922561,12.1876544 C43.0030459,11.5531937 43.2138357,11.13022 43.6354152,10.4957593 C44.2677845,9.43832482 44.689364,8.38089036 45.5325231,7.32345591 C46.1648924,6.26602145 47.0080515,5.42007388 47.6404208,4.57412632 C47.8512105,4.36263943 48.0620003,4.15115254 48.2727901,3.93966564 C48.4835798,3.72817875 48.6943696,3.51669186 48.9051594,3.30520497 C49.5375287,2.88223119 49.9591082,2.6707443 50.3806877,2.24777051 C50.3806877,2.4592574 51.013057,2.03628362 51.4346366,1.82479673 C51.8562161,1.61330984 52.2777956,1.40182295 52.6993752,1.19033606 C53.5425342,0.767362273 54.1749035,0.555875381 54.596483,0.34438849 C55.0180626,0.132901598 55.2288523,0.132901598 55.2288523,0.132901598 C55.2288523,0.132901598 55.2288523,0.34438849 55.0180626,0.555875381 C54.8072728,0.767362273 54.1749035,1.19033606 53.753324,1.61330984 C53.3317445,1.82479673 53.1209547,2.03628362 52.9101649,2.4592574 C52.6993752,2.6707443 52.2777956,3.09371808 52.0670059,3.30520497 C51.8562161,3.51669186 51.6454263,3.93966564 51.2238468,4.36263943 C51.013057,4.57412632 50.8022673,4.78561321 50.8022673,4.9971001 C50.5914775,5.20858699 50.3806877,5.42007388 50.169898,5.63156078 C49.5375287,6.47750834 48.6943696,7.32345591 48.0620003,8.16940347 C47.429631,9.01535104 46.7972617,10.0727855 46.3756822,11.13022 C46.1648924,11.5531937 45.9541026,12.1876544 45.7433129,12.8221151 C45.5325231,13.4565758 45.3217333,13.8795495 45.1109436,14.5140102 C44.689364,15.5714447 44.4785743,16.840366 44.0569947,17.8978005 C43.0030459,22.5505121 42.7922561,27.2032237 43.0030459,30.7985009 L43.0030459,31.4329615 L43.0030459,32.0674222 C43.0030459,32.490396 42.7922561,32.9133698 42.7922561,33.1248567 C42.5814664,33.7593173 42.5814664,34.393778 42.3706766,35.0282387 C42.3706766,35.8741863 42.1598868,36.5086469 42.1598868,36.5086469 L42.1598868,36.5086469 Z" id="Shape" fill="#FFFFFF" sketch:type="MSShapeGroup"></path>
            <path d="M40.7621668,37.0749233 C40.7621668,37.0749233 41.1837463,36.4404626 41.6053258,35.3830282 C41.8161156,34.9600544 42.2376951,34.3255937 42.4484849,33.4796461 C42.6592747,33.0566724 42.6592747,32.8451855 42.8700644,32.4222117 L42.8700644,31.787751 L42.8700644,31.1532903 C43.0808542,27.5580132 42.8700644,22.9053016 41.8161156,18.0411031 C41.6053258,16.7721817 41.1837463,15.7147473 40.7621668,14.4458259 C40.551377,13.8113652 40.3405872,13.3883915 40.1297975,12.7539308 C39.9190077,12.1194701 39.7082179,11.6964963 39.2866384,11.0620357 C38.6542691,10.0046012 38.2326896,8.94716674 37.3895305,7.88973228 C36.7571612,6.83229783 35.9140021,5.98635026 35.2816328,5.14040269 C35.0708431,4.9289158 34.8600533,4.71742891 34.6492635,4.50594202 C34.4384738,4.29445513 34.227684,4.08296824 34.0168942,3.87148135 C33.3845249,3.44850756 32.9629454,3.23702067 32.5413659,2.81404689 C32.1197863,2.60256 31.487417,2.17958621 31.0658375,1.96809932 C30.644258,1.75661243 30.2226784,1.54512554 29.8010989,1.33363865 C28.9579398,0.910664866 28.3255705,0.699177974 27.903991,0.487691083 C27.4824115,0.276204192 27.2716217,0.276204192 27.2716217,0.276204192 C27.2716217,0.276204192 27.4824115,0.487691083 27.6932012,0.699177974 C27.903991,0.910664866 28.5363603,1.33363865 28.9579398,1.75661243 C29.1687296,1.96809932 29.5903091,2.17958621 29.8010989,2.60256 C30.0118887,2.81404689 30.4334682,3.23702067 30.644258,3.44850756 C31.0658375,4.08296824 31.2766273,4.50594202 31.487417,4.9289158 C31.6982068,5.14040269 31.9089966,5.35188959 31.9089966,5.56337648 C32.1197863,5.77486337 32.3305761,5.98635026 32.5413659,6.19783715 C33.1737352,7.04378472 34.0168942,7.88973228 34.6492635,8.73567985 C35.2816328,9.58162742 35.9140021,10.6390619 36.3355817,11.6964963 C36.5463714,12.1194701 36.7571612,12.7539308 36.967951,13.3883915 C37.1787407,14.0228521 37.3895305,14.4458259 37.6003203,15.0802866 C38.0218998,16.1377211 38.2326896,17.4066424 38.6542691,18.4640769 C39.7082179,23.1167885 39.9190077,27.7695001 39.7082179,31.3647772 L39.7082179,31.9992379 L39.7082179,32.6336986 C39.7082179,33.0566724 39.9190077,33.4796461 39.9190077,33.691133 C40.1297975,34.3255937 40.1297975,34.9600544 40.3405872,35.5945151 C40.551377,36.4404626 40.7621668,37.0749233 40.7621668,37.0749233 L40.7621668,37.0749233 Z" id="Shape" fill="#FFFFFF" sketch:type="MSShapeGroup"></path>
            <path d="M61.4860546,103.775346 C50.314197,103.775346 41.250237,94.6814101 41.250237,83.4726048 C41.250237,94.6814101 32.1862771,103.775346 21.0144195,103.775346 C9.84256183,103.775346 0.77860187,94.6814101 0.77860187,83.4726048 C0.77860187,72.2637996 7.31308463,63.1698632 18.2741525,57.882691 C25.019425,54.7103876 41.4610268,36.7340018 41.4610268,36.7340018 C41.4610268,36.7340018 57.9026286,54.7103876 64.6479011,57.882691 C75.608969,63.1698632 82.1434517,72.2637996 82.1434517,83.4726048 C81.7218722,94.4699232 72.6579122,103.775346 61.4860546,103.775346 L61.4860546,103.775346 Z" id="Shape" stroke="#FFFFFF" stroke-width="5" sketch:type="MSShapeGroup"></path>
            <path d="M61.4860546,15.7967996 C50.314197,15.7967996 41.250237,24.8907359 41.250237,36.0995411 C41.250237,24.8907359 32.1862771,15.7967996 21.0144195,15.7967996 C9.84256183,15.7967996 0.77860187,24.8907359 0.77860187,36.0995411 C0.77860187,47.3083464 7.31308463,56.4022827 18.2741525,61.689455 C25.019425,64.8617584 41.4610268,82.8381441 41.4610268,82.8381441 C41.4610268,82.8381441 57.9026286,64.8617584 64.6479011,61.689455 C75.608969,56.4022827 82.1434517,47.3083464 82.1434517,36.0995411 C81.7218722,24.8907359 72.6579122,15.7967996 61.4860546,15.7967996 L61.4860546,15.7967996 Z" id="Shape" stroke="#FFFFFF" stroke-width="5" sketch:type="MSShapeGroup"></path>
            <text id="pulseband-copy" sketch:type="MSTextLayer" font-family="Soft Elegance" font-size="48" font-weight="normal" letter-spacing="0.800000012" fill="#FFFFFF">
                <tspan x="110.573471" y="75">pulse</tspan>
                <tspan x="216.477471" y="75">band</tspan>
            </text>
        </g>
    </g>
</svg>