<?xml version="1.0" encoding="UTF-8" standalone="no"?>
<svg width="13px" height="11px" viewBox="0 0 13 11" version="1.1" xmlns="http://www.w3.org/2000/svg" xmlns:xlink="http://www.w3.org/1999/xlink">
    <!-- Generator: Sketch 3.8.1 (29687) - http://www.bohemiancoding.com/sketch -->
    <title>emoticons-color_wink-06 copy 3</title>
    <desc>Created with Sketch.</desc>
    <defs></defs>
    <g id="Page-1" stroke="none" stroke-width="1" fill="none" fill-rule="evenodd">
        <g id="emoticons-color_wink-06-copy-3" fill="#111111">
            <g id="Group">
                <path d="M1.93478261,3.13043478 C1.1795587,3.13043478 0.565217391,2.51609348 0.565217391,1.76086957 C0.565217391,1.00564565 1.1795587,0.391304348 1.93478261,0.391304348 C2.69000652,0.391304348 3.30434783,1.00564565 3.30434783,1.76086957 C3.30434783,2.51609348 2.69000652,3.13043478 1.93478261,3.13043478 L1.93478261,3.13043478 Z" id="Shape"></path>
                <path d="M11.0652174,3.13043478 C10.3099935,3.13043478 9.69565217,2.51609348 9.69565217,1.76086957 C9.69565217,1.00564565 10.3099935,0.391304348 11.0652174,0.391304348 C11.8204413,0.391304348 12.4347826,1.00564565 12.4347826,1.76086957 C12.4347826,2.51609348 11.8204413,3.13043478 11.0652174,3.13043478 L11.0652174,3.13043478 Z" id="Shape-Copy-2"></path>
                <path d="M6.5,10.4347826 C5.03279848,10.4347826 3.66635587,9.64122 2.93476152,8.36371696 C2.80948739,8.14481935 2.88527457,7.86595761 3.10417217,7.74067891 C3.32396457,7.61495739 3.60170783,7.69141565 3.72742935,7.90987043 C4.29674848,8.90405152 5.35914304,9.52173913 6.5,9.52173913 C7.64085696,9.52173913 8.70325152,8.90405152 9.27256609,7.90987043 C9.398735,7.69119652 9.67648283,7.61540478 9.89582326,7.74067891 C10.1147209,7.86595304 10.1905126,8.14481478 10.0652339,8.36371696 C9.33364413,9.64122 7.96720152,10.4347826 6.5,10.4347826 L6.5,10.4347826 Z" id="Shape"></path>
            </g>
        </g>
    </g>
</svg>