<?xml version="1.0" encoding="UTF-8" standalone="no"?>
<svg width="195px" height="37px" viewBox="0 0 195 37" version="1.1" xmlns="http://www.w3.org/2000/svg" xmlns:xlink="http://www.w3.org/1999/xlink">
    <!-- Generator: Sketch 3.7.2 (28276) - http://www.bohemiancoding.com/sketch -->
    <title>Page 1</title>
    <desc>Created with Sketch.</desc>
    <defs>
        <polygon id="path-1" points="35.2251127 0.3 0.211899731 0.3 0.211899731 35.8683469 35.2251127 35.8683469 35.2251127 0.3"></polygon>
    </defs>
    <g id="Page-1" stroke="none" stroke-width="1" fill="none" fill-rule="evenodd">
        <g>
            <g id="Group-3" transform="translate(97.260266, 0.512700)">
                <mask id="mask-2" fill="white">
                    <use xlink:href="#path-1"></use>
                </mask>
                <g id="Clip-2"></g>
                <path d="M17.6997094,14.4202 C19.9176845,14.4202 22.1376615,14.4082 24.3556366,14.4282 C24.9201394,14.4342 25.1063051,14.2722 24.9061269,13.7182 C24.6639112,13.0562 24.3976741,12.4122 23.9532783,11.8582 C22.0195563,9.4402 19.425246,8.5882 16.4706148,9.0122 C13.6961441,9.4102 11.5922705,10.8662 10.5573489,13.6022 C10.3411564,14.1782 10.4152223,14.4442 11.1298587,14.4342 C13.319809,14.3982 15.5097592,14.4202 17.6997094,14.4202 M22.6100822,21.2082 C18.8106987,21.2082 15.0133171,21.2062 11.2139336,21.2102 C10.2410672,21.2102 10.2050352,21.2682 10.4572598,22.2202 C11.1678926,24.9022 13.8843117,26.9942 16.7828929,27.2422 C19.4412603,27.4702 21.7032746,26.8222 23.4147988,24.6842 C23.6990519,24.3302 24.0553693,24.2282 24.4937597,24.2302 C27.4163623,24.2402 30.338965,24.2382 33.2595658,24.2322 C33.7840329,24.2302 34.1463555,24.2642 33.8300739,24.9542 C31.1376762,30.8202 25.6527918,35.7102 18.2542032,35.8642 C8.83581583,36.0622 1.44923789,29.1442 0.368275264,20.6082 C-0.798764015,11.3882 4.65809546,3.1522 13.6721227,0.8722 C19.1990446,-0.5278 24.3816598,0.6422 28.7895852,4.3522 C33.6058742,8.4062 35.5175767,13.7342 35.1892843,19.9362 C35.1252273,21.1282 35.0231363,21.2062 33.8300739,21.2062 C30.0907439,21.2082 26.3494122,21.2082 22.6100822,21.2082" id="Fill-1" fill="#000000" mask="url(#mask-2)"></path>
            </g>
            <path d="M177.399979,14.9335 C179.561905,14.9335 181.72383,14.9015 183.883753,14.9495 C184.700481,14.9675 184.77855,14.6735 184.506308,14.0275 C184.224056,13.3535 183.911778,12.6955 183.427347,12.1375 C181.501632,9.9155 178.999404,9.1155 176.180894,9.5195 C173.452464,9.9095 171.308555,11.2695 170.279639,13.9895 C169.945341,14.8695 169.993384,14.9295 170.916205,14.9315 C173.078131,14.9355 175.238054,14.9335 177.399979,14.9335 M182.208261,21.7195 C178.408878,21.7215 174.609494,21.7195 170.812113,21.7215 C169.87728,21.7215 169.815225,21.8135 170.085466,22.7335 C170.886179,25.4635 173.52653,27.4995 176.431117,27.7515 C179.083479,27.9815 181.349497,27.3235 183.081039,25.2095 C183.337267,24.8975 183.643539,24.7415 184.063914,24.7435 C187.044568,24.7535 190.025223,24.7575 193.005877,24.7395 C193.682479,24.7355 193.746536,24.9755 193.478298,25.5235 C190.745864,31.0755 186.614185,34.9095 180.378632,36.1215 C173.668657,37.4255 166.135948,34.0415 162.578781,28.1675 C156.807641,18.6375 160.502932,6.6675 170.736045,2.2255 C178.665106,-1.2165 188.545905,1.8135 192.921802,10.5035 C194.471182,13.5775 195.065711,16.8395 194.879545,20.2575 C194.803478,21.6735 194.739421,21.7195 193.342176,21.7195 C189.630871,21.7215 185.919566,21.7195 182.208261,21.7195" id="Fill-4" fill="#000000"></path>
            <path d="M44.6277422,14.9329 C46.8497209,14.9329 49.0696979,14.9189 51.2916766,14.9429 C51.886206,14.9489 52.0163219,14.7409 51.8201472,14.2149 C51.5719262,13.5589 51.3076909,12.9129 50.8632951,12.3569 C48.9696087,9.9929 46.425343,9.1369 43.5347689,9.5049 C40.8043373,9.8529 38.6424121,11.2069 37.5574459,13.8949 C37.1590912,14.8809 37.2011286,14.9309 38.2260413,14.9329 C40.3599416,14.9349 42.4938419,14.9329 44.6277422,14.9329 M49.4680526,21.7209 C45.6406442,21.7209 41.8132358,21.7409 37.9858274,21.7029 C37.1831126,21.6969 37.1210573,21.9649 37.3112266,22.6289 C38.1079361,25.4089 40.6381894,27.4509 43.5768063,27.7429 C46.2531897,28.0069 48.5652486,27.3929 50.3108031,25.2269 C50.5910527,24.8789 50.9273522,24.7409 51.3737497,24.7409 C54.3243773,24.7529 57.2770067,24.7549 60.2276343,24.7409 C60.8521905,24.7389 61.0183385,24.9109 60.72808,25.5069 C57.9516075,31.2049 53.6998211,35.1209 47.2981202,36.1709 C39.803446,37.3989 32.214688,33.3689 28.8236682,26.3409 C24.4537767,17.2849 28.6314971,5.6149 38.7825369,1.9049 C46.3552806,-0.8631 55.0810511,1.8929 59.531014,9.3369 C61.5247895,12.6689 62.3194972,16.2949 62.1293278,20.1549 C62.0552619,21.6529 61.9932066,21.7209 60.5138892,21.7209 L49.4680526,21.7209" id="Fill-6" fill="#000000"></path>
            <path d="M73.8936042,5.4583 C74.8424492,4.1683 75.6851997,3.0903 76.8822657,2.3823 C79.91897,0.5923 83.1758703,0.5523 86.4688028,1.3443 C92.3100045,2.7503 94.9283362,6.6043 95.2446179,12.1223 C95.666994,19.5263 95.3366999,26.9443 95.4227765,34.3563 C95.4327854,35.1483 95.068461,35.3503 94.3538246,35.3443 C91.7234822,35.3223 89.0931398,35.3403 86.4647992,35.3363 C85.2817457,35.3343 85.2196904,35.2743 85.2196904,34.1023 C85.2156868,28.5563 85.2216922,23.0103 85.2136851,17.4643 C85.2116833,16.2983 85.2437118,15.1283 84.9534533,13.9803 C84.1907741,10.9743 82.1889915,10.3663 79.8128755,10.3783 C79.3484619,10.3803 78.8800448,10.4583 78.4236383,10.5543 C76.4318646,10.9683 75.092672,12.5203 74.7783922,14.7563 C74.6442727,15.7083 74.5762121,16.6663 74.5802157,17.6323 C74.5922264,23.1483 74.568205,28.6663 74.6022353,34.1823 C74.6082406,35.0543 74.3580178,35.3683 73.463221,35.3523 C70.8048536,35.3083 68.1464863,35.3183 65.4881189,35.3463 C64.7374504,35.3543 64.4672098,35.1023 64.4672098,34.3323 C64.4872276,23.8823 64.4872276,13.4303 64.4692116,2.9803 C64.4672098,2.2243 64.7034201,1.9523 65.4741064,1.9643 C67.9583187,2.0003 70.442531,2.0023 72.9247414,1.9623 C73.7194491,1.9503 73.9516559,2.2563 73.9036131,2.9963 C73.8575721,3.7403 73.8936042,4.4883 73.8936042,5.4583" id="Fill-8" fill="#000000"></path>
            <g id="Group-12" transform="translate(0.000000, 0.512700)" fill="#ff0001">
                <path d="M5.04529297,24.7716 C6.38848912,24.7716 7.73368705,24.7896 9.07688321,24.7616 C9.64939304,24.7496 9.99169787,24.8996 10.1598476,25.5036 C10.9305339,28.2796 14.7939744,28.2656 16.437438,26.7396 C17.2481599,25.9856 17.146069,24.4816 16.2792971,23.5656 C15.5766714,22.8256 14.6678621,22.4296 13.739035,22.0596 C11.1106944,21.0096 8.33422185,20.3416 5.81597928,19.0136 C4.16851217,18.1436 2.68318945,17.0696 1.6402607,15.4936 C-0.279448857,12.5916 -0.0672598967,8.6816 2.17673844,5.5616 C4.16250682,2.7996 6.96300074,1.3016 10.2219029,0.6976 C14.6878799,-0.1284 18.9176467,0.4476 22.5128483,3.4876 C24.5066238,5.1756 25.5715722,7.4236 25.9939483,9.9896 C26.1120535,10.7056 25.9719287,11.0516 25.1191693,11.0356 C22.4608019,10.9856 19.8024346,11.0036 17.1420655,11.0276 C16.4894843,11.0336 16.1131492,10.8776 16.0110583,10.1536 C15.9209781,9.5096 15.4585663,9.0576 14.8520261,8.8256 C13.8050938,8.4276 12.7381437,8.3816 11.6992185,8.8456 C10.2559332,9.4896 10.0417424,11.2776 11.2908548,12.2676 C12.1035786,12.9116 13.0724414,13.2616 14.0413042,13.5916 C16.1411741,14.3056 18.3171119,14.7916 20.3669373,15.6556 C21.2257021,16.0176 22.0904722,16.3996 22.8731692,16.8996 C26.7686382,19.3976 27.4572514,22.4376 26.9508004,26.2976 C26.4603637,30.0456 24.2223707,32.6716 20.8974097,34.2396 C16.0390832,36.5316 11.0546445,36.6396 6.18831086,34.2416 C2.63915023,32.4936 0.681406811,29.4916 0.0268238874,25.6076 C-0.0832741579,24.9636 0.142927281,24.7616 0.749467421,24.7676 C2.18274379,24.7836 3.61401838,24.7716 5.04529297,24.7716" id="Fill-10"></path>
            </g>
            <path d="M137.748669,25.2837 C139.121892,25.2837 140.495115,25.2977 141.868338,25.2777 C142.39881,25.2697 142.711088,25.4037 142.885243,25.9777 C143.729995,28.7677 147.347217,28.7757 149.092771,27.3357 C149.975557,26.6077 149.951536,25.1237 149.118794,24.1697 C148.506249,23.4677 147.705536,23.0457 146.848773,22.7297 C144.630798,21.9097 142.396808,21.1317 140.192845,20.2737 C138.467309,19.6037 136.875892,18.6797 135.530694,17.3837 C132.323838,14.2957 132.556045,10.1337 134.435719,6.8477 C136.015125,4.0857 138.509346,2.4457 141.496006,1.5877 C146.000017,0.2917 150.359899,0.5937 154.333438,3.2817 C156.891716,5.0117 158.256932,7.5357 158.753374,10.5557 C158.867476,11.2537 158.691319,11.5577 157.90662,11.5457 C155.248253,11.5057 152.587884,11.5197 149.929516,11.5377 C149.300956,11.5417 148.870573,11.4517 148.778491,10.6917 C148.706427,10.0837 148.280047,9.6257 147.711541,9.3877 C146.488452,8.8717 145.249348,8.8717 144.084311,9.5297 C142.841204,10.2337 142.943295,12.0877 144.272478,12.9577 C145.331422,13.6517 146.532491,14.0397 147.733561,14.4117 C149.547176,14.9737 151.388816,15.4477 153.148383,16.1697 C155.086108,16.9657 156.889714,17.9637 158.188871,19.6817 C160.811207,23.1557 160.32077,28.8117 157.13193,32.1917 C154.994026,34.4577 152.317643,35.6597 149.306962,36.1577 C145.097213,36.8577 141.075632,36.3657 137.490439,33.8837 C134.776022,32.0077 133.294702,29.3237 132.76423,26.0917 C132.670146,25.5237 132.870325,25.2757 133.452843,25.2817 C134.884118,25.2957 136.317394,25.2857 137.748669,25.2857 L137.748669,25.2837 Z" id="Fill-13" fill="#000000"></path>
        </g>
    </g>
</svg>
