<?xml version="1.0" encoding="UTF-8" standalone="no"?>
<svg width="11px" height="16px" viewBox="0 0 11 16" version="1.1" xmlns="http://www.w3.org/2000/svg" xmlns:xlink="http://www.w3.org/1999/xlink" xmlns:sketch="http://www.bohemiancoding.com/sketch/ns">
    <!-- Generator: Sketch 3.3.3 (12081) - http://www.bohemiancoding.com/sketch -->
    <title>S</title>
    <desc>Created with Sketch.</desc>
    <defs></defs>
    <g id="Welcome" stroke="none" stroke-width="1" fill="none" fill-rule="evenodd" sketch:type="MSPage">
        <path d="M9.4,3.38 C8.64,1.76 7.22,0.84 5.36,0.84 C3.16,0.84 1.54,2.52 1.54,4.64 C1.54,9.08 7.4,8.62 7.4,10.94 C7.4,12.22 6.66,12.76 5.58,12.76 C4.06,12.76 3.22,11.42 2.8,9.92 L0.7,11.24 C1.14,13.38 2.98,15.16 5.52,15.16 C8.2,15.16 10,13.54 10,10.8 C10,6.64 4.02,6.96 4.02,4.52 C4.02,3.78 4.6,3.24 5.36,3.24 C6.18,3.24 6.76,3.68 7.3,4.72 L9.4,3.38 Z" id="S" fill="#111111" sketch:type="MSShapeGroup"></path>
    </g>
</svg>