<?xml version="1.0" encoding="utf-8"?>
<!-- Generator: Adobe Illustrator 19.0.0, SVG Export Plug-In . SVG Version: 6.00 Build 0)  -->
<svg version="1.1" id="Layer_1" xmlns="http://www.w3.org/2000/svg" xmlns:xlink="http://www.w3.org/1999/xlink" x="0px" y="0px"
	 viewBox="0 0 100 100" enable-background="new 0 0 100 100" xml:space="preserve">
<g>
	<path d="M61.512,48.176c-1.898,0-3.795-0.001-5.693,0.001c-0.486,0.001-0.505,0.03-0.379,0.506c0.355,1.34,1.712,2.387,3.16,2.511
		c1.328,0.114,2.458-0.21,3.314-1.279c0.141-0.176,0.32-0.228,0.539-0.227c1.46,0.005,2.919,0.004,4.379,0.001
		c0.261-0.001,0.443,0.017,0.285,0.361c-1.345,2.933-4.085,5.378-7.781,5.455c-4.705,0.098-8.395-3.36-8.935-7.628
		c-0.583-4.61,2.143-8.728,6.646-9.868c2.762-0.7,5.35-0.115,7.553,1.74c2.406,2.027,3.361,4.691,3.196,7.792
		c-0.032,0.596-0.083,0.635-0.678,0.635C65.249,48.177,63.381,48.176,61.512,48.176z M59.059,44.782
		c1.108,0,2.217-0.006,3.325,0.004c0.281,0.003,0.375-0.078,0.274-0.356c-0.12-0.331-0.254-0.653-0.475-0.93
		c-0.966-1.208-2.262-1.634-3.738-1.422c-1.385,0.199-2.437,0.927-2.953,2.295c-0.109,0.287-0.071,0.421,0.286,0.415
		C56.871,44.771,57.965,44.783,59.059,44.782z"/>
	<path d="M92.653,48.176c-1.898,0-3.796-0.001-5.693,0c-0.467,0-0.498,0.046-0.363,0.507c0.4,1.365,1.719,2.382,3.17,2.508
		c1.326,0.115,2.458-0.213,3.322-1.271c0.128-0.156,0.281-0.234,0.491-0.233c1.489,0.005,2.978,0.007,4.467-0.002
		c0.338-0.002,0.37,0.118,0.236,0.392c-1.365,2.776-3.429,4.693-6.544,5.299c-3.352,0.652-7.116-1.039-8.893-3.977
		c-2.883-4.765-1.036-10.75,4.075-12.971c3.961-1.721,8.897-0.206,11.084,4.138c0.773,1.537,1.07,3.169,0.978,4.877
		c-0.038,0.708-0.07,0.731-0.768,0.731C96.361,48.176,94.507,48.176,92.653,48.176z M90.251,44.783c1.08,0,2.16-0.016,3.239,0.008
		c0.409,0.009,0.447-0.138,0.312-0.461c-0.141-0.338-0.298-0.666-0.539-0.945c-0.962-1.112-2.212-1.512-3.621-1.31
		c-1.363,0.195-2.434,0.875-2.948,2.235c-0.166,0.44-0.142,0.47,0.318,0.471C88.092,44.784,89.172,44.783,90.251,44.783z"/>
	<path d="M26.343,48.176c-1.912,0-3.825,0.01-5.737-0.008c-0.4-0.004-0.431,0.131-0.336,0.462c0.398,1.39,1.662,2.411,3.129,2.557
		c1.337,0.132,2.493-0.174,3.365-1.258c0.14-0.173,0.307-0.243,0.531-0.242c1.474,0.006,2.949,0.007,4.423,0
		c0.312-0.002,0.395,0.085,0.25,0.383c-1.387,2.849-3.511,4.807-6.709,5.332c-3.744,0.615-7.535-1.4-9.229-4.915
		c-2.183-4.527-0.096-10.362,4.976-12.218c3.783-1.384,8.142-0.006,10.365,3.716c0.995,1.666,1.392,3.479,1.297,5.409
		c-0.037,0.75-0.067,0.783-0.806,0.783C30.022,48.176,28.182,48.176,26.343,48.176z M23.925,44.782c1.11,0,2.219-0.007,3.329,0.005
		c0.297,0.003,0.362-0.101,0.264-0.363c-0.124-0.329-0.256-0.652-0.478-0.93c-0.945-1.181-2.217-1.61-3.66-1.426
		c-1.364,0.174-2.444,0.851-2.987,2.195c-0.199,0.493-0.178,0.518,0.335,0.519C21.793,44.784,22.859,44.783,23.925,44.782z"/>
	<path d="M38.544,40.045c0.474-0.645,0.895-1.184,1.493-1.538c1.516-0.896,3.144-0.915,4.789-0.519
		c2.918,0.703,4.226,2.629,4.384,5.389c0.211,3.702,0.046,7.411,0.089,11.117c0.005,0.396-0.177,0.497-0.534,0.494
		c-1.313-0.011-2.627-0.003-3.941-0.005c-0.591-0.001-0.622-0.031-0.622-0.617c-0.002-2.773,0.001-5.546-0.003-8.319
		c-0.001-0.583,0.015-1.168-0.131-1.741c-0.381-1.503-1.381-1.808-2.568-1.801c-0.232,0.001-0.466,0.04-0.694,0.087
		c-0.995,0.208-1.664,0.983-1.821,2.101c-0.067,0.477-0.1,0.955-0.099,1.438c0.006,2.759-0.005,5.517,0.012,8.276
		c0.003,0.436-0.122,0.593-0.569,0.585c-1.328-0.023-2.656-0.017-3.984-0.003c-0.375,0.004-0.51-0.123-0.509-0.508
		c0.01-5.225,0.009-10.45,0-15.675c-0.001-0.378,0.117-0.514,0.503-0.509c1.24,0.018,2.481,0.02,3.722,0
		c0.397-0.006,0.513,0.147,0.489,0.516C38.526,39.186,38.544,39.56,38.544,40.045z"/>
	<path d="M4.151,49.958c0.671,0,1.343,0.009,2.014-0.005c0.286-0.006,0.457,0.07,0.541,0.371c0.386,1.388,2.316,1.381,3.136,0.618
		c0.405-0.377,0.354-1.129-0.079-1.587c-0.351-0.37-0.805-0.568-1.269-0.753c-1.313-0.525-2.7-0.859-3.958-1.523
		c-0.823-0.434-1.564-0.971-2.086-1.76c-0.959-1.451-0.853-3.405,0.268-4.965c0.992-1.381,2.391-2.13,4.019-2.432
		c2.231-0.413,4.344-0.125,6.14,1.394c0.997,0.844,1.529,1.968,1.739,3.251c0.059,0.358-0.012,0.531-0.437,0.523
		c-1.328-0.025-2.656-0.016-3.984-0.004c-0.326,0.003-0.514-0.075-0.565-0.437c-0.045-0.322-0.276-0.548-0.58-0.664
		c-0.523-0.199-1.056-0.222-1.575,0.01c-0.721,0.322-0.828,1.216-0.204,1.711c0.406,0.322,0.89,0.497,1.374,0.662
		c1.049,0.357,2.136,0.6,3.16,1.032c0.429,0.181,0.862,0.372,1.252,0.622c1.947,1.249,2.29,2.769,2.038,4.699
		c-0.245,1.875-1.364,3.187-3.024,3.971c-2.427,1.146-4.917,1.2-7.348,0.001c-1.773-0.874-2.751-2.375-3.078-4.317
		c-0.054-0.322,0.059-0.424,0.362-0.42C2.72,49.964,3.436,49.958,4.151,49.958z"/>
	<path d="M70.444,49.958c0.686,0,1.372,0.007,2.058-0.003c0.265-0.004,0.421,0.063,0.508,0.35c0.422,1.395,2.229,1.399,3.101,0.679
		c0.441-0.364,0.429-1.106,0.013-1.583c-0.306-0.351-0.705-0.562-1.134-0.721c-1.108-0.41-2.224-0.799-3.325-1.227
		c-0.862-0.335-1.657-0.798-2.329-1.446c-1.602-1.544-1.486-3.625-0.547-5.268c0.789-1.381,2.035-2.201,3.526-2.63
		c2.25-0.648,4.428-0.497,6.414,0.848c1.277,0.865,1.96,2.126,2.208,3.637c0.057,0.349-0.031,0.5-0.423,0.494
		c-1.328-0.02-2.657-0.013-3.985-0.004c-0.313,0.002-0.529-0.043-0.575-0.424c-0.036-0.304-0.249-0.532-0.533-0.652
		c-0.611-0.257-1.231-0.258-1.812,0.071c-0.622,0.352-0.57,1.279,0.094,1.714c0.529,0.347,1.129,0.541,1.73,0.727
		c0.906,0.281,1.826,0.518,2.705,0.879c0.968,0.398,1.869,0.897,2.518,1.756c1.31,1.737,1.066,4.565-0.528,6.255
		c-1.068,1.133-2.404,1.734-3.909,1.983c-2.103,0.349-4.112,0.103-5.903-1.137c-1.355-0.938-2.096-2.28-2.361-3.896
		c-0.047-0.284,0.053-0.408,0.344-0.405c0.715,0.007,1.431,0.002,2.146,0.002C70.444,49.959,70.444,49.958,70.444,49.958z"/>
</g>
</svg>
