<?xml version="1.0" encoding="UTF-8" standalone="no"?>
<svg width="9px" height="14px" viewBox="0 0 9 14" version="1.1" xmlns="http://www.w3.org/2000/svg" xmlns:xlink="http://www.w3.org/1999/xlink">
    <!-- Generator: Sketch 3.7.2 (28276) - http://www.bohemiancoding.com/sketch -->
    <title>S</title>
    <desc>Created with Sketch.</desc>
    <defs></defs>
    <g id="Page-1" stroke="none" stroke-width="1" fill="none" fill-rule="evenodd">
        <path d="M7.99,3.123 C7.344,1.746 6.137,0.964 4.556,0.964 C2.686,0.964 1.309,2.392 1.309,4.194 C1.309,7.968 6.29,7.577 6.29,9.549 C6.29,10.637 5.661,11.096 4.743,11.096 C3.451,11.096 2.737,9.957 2.38,8.682 L0.595,9.804 C0.969,11.623 2.533,13.136 4.692,13.136 C6.97,13.136 8.5,11.759 8.5,9.43 C8.5,5.894 3.417,6.166 3.417,4.092 C3.417,3.463 3.91,3.004 4.556,3.004 C5.253,3.004 5.746,3.378 6.205,4.262 L7.99,3.123 Z" id="S" fill="#111111"></path>
    </g>
</svg>