<?xml version="1.0" encoding="UTF-8" standalone="no"?>
<svg width="44px" height="44px" viewBox="0 0 44 44" version="1.1" xmlns="http://www.w3.org/2000/svg" xmlns:xlink="http://www.w3.org/1999/xlink" xmlns:sketch="http://www.bohemiancoding.com/sketch/ns">
    <!-- Generator: Sketch 3.3.3 (12081) - http://www.bohemiancoding.com/sketch -->
    <title>Rectangle 90</title>
    <desc>Created with Sketch.</desc>
    <defs></defs>
    <g id="Page-1" stroke="none" stroke-width="1" fill="none" fill-rule="evenodd" sketch:type="MSPage">
        <rect id="Rectangle-90" fill="#16FFBD" sketch:type="MSShapeGroup" x="0" y="0" width="44" height="44"></rect>
        <path d="M30.672258,12.1247742 C28.9904515,8.53987096 25.848129,6.504 21.732129,6.504 C16.8637419,6.504 13.2788387,10.2216774 13.2788387,14.9130322 C13.2788387,24.7383225 26.2464516,23.720387 26.2464516,28.8543225 C26.2464516,31.6868386 24.6089032,32.8818064 22.2189677,32.8818064 C18.8553548,32.8818064 16.9965161,29.916516 16.0670968,26.5971612 L11.42,29.5181935 C12.3936774,34.2538063 16.4654193,38.1927741 22.0861935,38.1927741 C28.0167741,38.1927741 31.9999999,34.6078709 31.9999999,28.544516 C31.9999999,19.3388387 18.7668387,20.0469677 18.7668387,14.6474838 C18.7668387,13.0099355 20.0503225,11.8149677 21.732129,11.8149677 C23.5467096,11.8149677 24.8301935,12.7886451 26.0251612,15.0900645 L30.672258,12.1247742 Z" id="S" fill="#111111" sketch:type="MSShapeGroup"></path>
    </g>
</svg>